<?xml version="1.0" encoding="UTF-8"?> <svg xmlns="http://www.w3.org/2000/svg" height="512px" viewBox="0 0 480 480" width="512px" class=""> <g> <path d="m72 160h40v-16h-32v-16h24c4.417969 0 8-3.582031 8-8v-32c0-4.417969-3.582031-8-8-8h-32c-4.417969 0-8 3.582031-8 8v16h16v-8h16v16h-24c-4.417969 0-8 3.582031-8 8v32c0 4.417969 3.582031 8 8 8zm0 0" data-original="#000000" class="active-path" data-old_color="#000000" fill="#FFFFFF"></path> <path d="m136 128h24v32h16v-80h-16v32h-16v-32h-16v40c0 4.417969 3.582031 8 8 8zm0 0" data-original="#000000" class="active-path" data-old_color="#000000" fill="#FFFFFF"></path> <path d="m256 32c-8.3125.003906-16.617188.457031-24.878906 1.359375l1.757812 15.914063c87.730469-9.753907 172.046875 36.972656 210.285156 116.527343 38.238282 79.558594 22.054688 174.589844-40.359374 237.003907-62.414063 62.414062-157.445313 78.597656-237.003907 40.359374-79.554687-38.238281-126.28125-122.554687-116.527343-210.285156l-15.914063-1.757812c-.902344 8.261718-1.355469 16.566406-1.359375 24.878906 0 123.710938 100.289062 224 224 224s224-100.289062 224-224-100.289062-224-224-224zm0 0" data-original="#000000" class="active-path" data-old_color="#000000" fill="#FFFFFF"></path> <path d="m64.175781 247.664062c-.113281 2.734376-.175781 5.542969-.175781 8.335938 0 106.039062 85.960938 192 192 192s192-85.960938 192-192-85.960938-192-192-192c-2.792969 0-5.601562.0625-8.335938.175781l.671876 16c2.542968-.117187 5.097656-.175781 7.664062-.175781 97.203125 0 176 78.796875 176 176s-78.796875 176-176 176-176-78.796875-176-176c0-2.566406.054688-5.121094.167969-7.664062zm0 0" data-original="#000000" class="active-path" data-old_color="#000000" fill="#FFFFFF"></path> <path d="m248 96h16v16h-16zm0 0" data-original="#000000" class="active-path" data-old_color="#000000" fill="#FFFFFF"></path> <path d="m96 248h16v16h-16zm0 0" data-original="#000000" class="active-path" data-old_color="#000000" fill="#FFFFFF"></path> <path d="m137.207031 363.480469 11.316407-11.316407 11.3125 11.316407-11.3125 11.3125zm0 0" data-original="#000000" class="active-path" data-old_color="#000000" fill="#FFFFFF"></path> <path d="m248 400h16v16h-16zm0 0" data-original="#000000" class="active-path" data-old_color="#000000" fill="#FFFFFF"></path> <path d="m352.167969 363.480469 11.3125-11.3125 11.316406 11.3125-11.316406 11.3125zm0 0" data-original="#000000" class="active-path" data-old_color="#000000" fill="#FFFFFF"></path> <path d="m400 248h16v16h-16zm0 0" data-original="#000000" class="active-path" data-old_color="#000000" fill="#FFFFFF"></path> <path d="m352.167969 148.519531 11.3125-11.3125 11.316406 11.3125-11.316406 11.316407zm0 0" data-original="#000000" class="active-path" data-old_color="#000000" fill="#FFFFFF"></path> <path d="m152 248v16h78.054688l20.289062 20.289062c3.125 3.121094 8.1875 3.121094 11.3125 0l22.632812-22.632812c3.121094-3.125 3.121094-8.1875 0-11.3125l-20.289062-20.289062v-94.054688h-16v94.054688l-17.945312 17.945312zm104-3.320312 11.320312 11.320312-11.320312 11.320312-11.320312-11.320312zm0 0" data-original="#000000" class="active-path" data-old_color="#000000" fill="#FFFFFF"></path> <path d="m120 240c66.273438 0 120-53.726562 120-120s-53.726562-120-120-120-120 53.726562-120 120c.0742188 66.242188 53.757812 119.925781 120 120zm0-224c57.4375 0 104 46.5625 104 104s-46.5625 104-104 104-104-46.5625-104-104c.066406-57.410156 46.589844-103.933594 104-104zm0 0" data-original="#000000" class="active-path" data-old_color="#000000" fill="#FFFFFF"></path> </g> </svg> 