<?xml version="1.0" encoding="UTF-8"?> <svg xmlns="http://www.w3.org/2000/svg" id="Layer_5" height="512px" viewBox="0 0 64 64" width="512px" class=""> <g> <g> <path d="m36 53c1.596 0 2.892-1.255 2.983-2.828 3.625-1.576 6.017-5.176 6.017-9.172 0-5.514-4.486-10-10-10s-10 4.486-10 10c0 1.727.442 3.389 1.274 4.873l-5.274 2.604v-1.415c0-2.879-1.728-5.43-4.4-6.5l-.6-.24v-2.322h1.382c.558 0 1.118-.132 1.618-.382 1.233-.617 2-1.857 2-3.236v-.764l2-1v-.618c0-3.32-2.305-6.179-4.109-7.909.67-.826 1.092-1.849 1.107-2.969l.002-.688-3.254-1.952c-1.615-.969-3.465-1.482-5.349-1.482-5.733 0-10.397 4.664-10.397 10.397v18.131c0 2.923 1.525 5.556 4 7.041v10.431h16v-6.043c.844-.088 1.675-.324 2.438-.704l6.507-3.253zm1-3c0 .551-.448 1-1 1h-2.375c.531-.463.941-1.049 1.169-1.734.339-1.015.262-2.099-.216-3.052-.681-1.366-2.052-2.214-3.578-2.214v-2c0-.551.448-1 1-1h4c.552 0 1 .449 1 1zm-2-17c4.411 0 8 3.589 8 8 0 2.885-1.565 5.502-4 6.914v-5.914c0-1.654-1.346-3-3-3h-4c-1.654 0-3 1.346-3 3v2.526l-.917.453c-.698-1.209-1.083-2.563-1.083-3.979 0-4.411 3.589-8 8-8zm-16 14.062v.282l-4.807-4.807c.391-.134.702-.277.933-.409l.732.293c1.909.763 3.142 2.585 3.142 4.641zm-3.794-.684-2.828 2.828-4.793-4.793c-.377-.376-.585-.878-.585-1.413s.208-1.037.586-1.414c.378-.378.88-.586 1.414-.586s1.036.208 1.414.586zm5.76-14.979-1.966.983v2c0 .617-.343 1.171-.895 1.447-.223.112-.473.171-.723.171h-5.382v2h2v2.459c-.274.136-.744.312-1.458.426l-.714-.714c-.512-.512-1.144-.854-1.828-1.03v-2.839l2.46-3.69-1.646-.824c-.502-.25-.814-.755-.814-1.316 0-.811.66-1.472 1.472-1.472h1.249l1-3h1.195c.878 0 1.695-.241 2.419-.628 1.449 1.35 3.355 3.558 3.631 6.027zm-15.966 11.601v7.107c-1.261-1.16-2-2.802-2-4.58v-18.13c0-4.63 3.768-8.397 8.397-8.397 1.521 0 3.016.414 4.319 1.197l2.238 1.342c-.25 1.393-1.523 2.461-3.038 2.461h-2.637l-1.002 3.005c-1.824.101-3.277 1.618-3.277 3.467 0 1.182.586 2.256 1.554 2.895l-1.554 2.33v3.444c-.684.176-1.316.518-1.827 1.03-.757.755-1.173 1.76-1.173 2.829zm14 18h-12v-14.344l8.271 8.271c1.013 1.014 2.328 1.691 3.729 1.951zm3.546-6.536c-1.91.951-4.364.547-5.861-.951l-2.893-2.893 2.828-2.828 3.4 3.4 10.085-4.981c.965-.482 2.206-.064 2.685.896.239.477.277 1.018.107 1.525-.168.507-.524.917-1.002 1.156z" data-original="#000000" class="active-path" data-old_color="#000000" fill="#FFFFFF"></path> <circle cx="17" cy="28.999" r="1" data-original="#000000" class="active-path" data-old_color="#000000" fill="#FFFFFF"></circle> <path d="m59 55.101v-10.101c1.103 0 2-.897 2-2v-2c0-1.103-.897-2-2-2h-2v-11c0-6.065-4.935-11-11-11s-11 4.935-11 11v1h6v-1c0-2.757 2.243-5 5-5s5 2.243 5 5v11h-2c-1.103 0-2 .897-2 2v2c0 1.103.897 2 2 2v10h-15c-2.757 0-5 2.243-5 5v3h34v-3c0-2.414-1.721-4.434-4-4.899zm-13-34.101c-3.521 0-6.442 2.612-6.929 6h-2.016c.499-4.494 4.319-8 8.944-8 4.963 0 9 4.038 9 9v11h-2v-11c.001-3.86-3.14-7-6.999-7zm3 20h10v2h-10zm8 4v10h-6v-10zm4 16h-30v-1c0-1.654 1.346-3 3-3h24c1.654 0 3 1.346 3 3z" data-original="#000000" class="active-path" data-old_color="#000000" fill="#FFFFFF"></path> <path d="m23 22c0 1.654 1.346 3 3 3s3-1.346 3-3-1.346-3-3-3-3 1.346-3 3zm3-1c.552 0 1 .449 1 1s-.448 1-1 1-1-.449-1-1 .448-1 1-1z" data-original="#000000" class="active-path" data-old_color="#000000" fill="#FFFFFF"></path> <path d="m32 17c2.206 0 4-1.794 4-4s-1.794-4-4-4-4 1.794-4 4 1.794 4 4 4zm0-6c1.103 0 2 .897 2 2s-.897 2-2 2-2-.897-2-2 .897-2 2-2z" data-original="#000000" class="active-path" data-old_color="#000000" fill="#FFFFFF"></path> <path d="m21 10c1.654 0 3-1.346 3-3s-1.346-3-3-3-3 1.346-3 3 1.346 3 3 3zm0-4c.552 0 1 .449 1 1s-.448 1-1 1-1-.449-1-1 .448-1 1-1z" data-original="#000000" class="active-path" data-old_color="#000000" fill="#FFFFFF"></path> <path d="m41 9c2.206 0 4-1.794 4-4s-1.794-4-4-4-4 1.794-4 4 1.794 4 4 4zm0-6c1.103 0 2 .897 2 2s-.897 2-2 2-2-.897-2-2 .897-2 2-2z" data-original="#000000" class="active-path" data-old_color="#000000" fill="#FFFFFF"></path> <path d="m50 13c1.654 0 3-1.346 3-3s-1.346-3-3-3-3 1.346-3 3 1.346 3 3 3zm0-4c.552 0 1 .449 1 1s-.448 1-1 1-1-.449-1-1 .448-1 1-1z" data-original="#000000" class="active-path" data-old_color="#000000" fill="#FFFFFF"></path> </g> </g> </svg> 